<?xml version="1.0" encoding="UTF-8"?>
<svg version="1.1" xmlns="http://www.w3.org/2000/svg" width="782" height="782">
<path d="M0 0 C258.06 0 516.12 0 782 0 C782 258.06 782 516.12 782 782 C523.94 782 265.88 782 0 782 C0 523.94 0 265.88 0 0 Z " fill="#FFFFFF" transform="translate(0,0)"/>
<path d="M0 0 C0.886875 0.09796875 1.77375 0.1959375 2.6875 0.296875 C3.574375 0.38453125 4.46125 0.4721875 5.375 0.5625 C7.6875 1.046875 7.6875 1.046875 9.6875 3.046875 C9.47929816 4.83028272 9.25702364 6.61259122 8.98703003 8.38769531 C8.31450052 14.35830473 8.55888572 20.41889666 8.59765625 26.421875 C8.60211699 27.15476746 8.60657772 27.88765991 8.61117363 28.64276123 C8.63671767 32.51648936 8.67047474 36.39005993 8.7097168 40.26367188 C8.74035794 43.45263226 8.75398948 46.64097342 8.75268555 49.83007812 C8.75115695 53.70422685 8.77883355 57.57715048 8.82711601 61.45098877 C8.84068402 62.91801171 8.8442874 64.38516457 8.83735847 65.85223389 C8.80966961 73.44387436 8.83815895 79.66592414 14.02572632 85.66040039 C16.94238294 88.09386675 20.07975312 89.04410725 23.6875 90.046875 C25.01412562 90.53342364 26.33588528 91.03345294 27.65234375 91.546875 C33.87930588 93.90041505 40.0941787 96.2258396 46.4296875 98.2734375 C49.31936169 99.26332589 52.15436606 100.37437595 55 101.484375 C60.23545616 103.5224197 65.50612136 105.3446189 70.8515625 107.0703125 C73.55630402 108.00169732 76.13153222 109.08621405 78.75 110.234375 C83.96923529 112.39844817 89.08052145 112.8336819 94.6875 113.046875 C95.33615659 108.58736098 95.72535965 104.27539434 95.6484375 99.76953125 C95.63619141 99.01406006 95.62394531 98.25858887 95.61132812 97.48022461 C95.57903054 95.9533561 95.53366392 94.42670263 95.47460938 92.90063477 C95.36384784 87.57866359 95.36384784 87.57866359 96.90234375 85.05078125 C99.20421944 83.75629098 100.74863924 83.7451854 103.375 83.859375 C104.58736328 83.89998047 104.58736328 83.89998047 105.82421875 83.94140625 C106.43910156 83.97621094 107.05398438 84.01101562 107.6875 84.046875 C110.78764229 89.99425324 111.08856268 94.84233759 110.9375 101.484375 C110.93234375 102.38736328 110.9271875 103.29035156 110.921875 104.22070312 C110.87380186 108.37001628 110.69185813 112.4092672 110.109375 116.51953125 C109.43767836 120.00849487 109.43767836 120.00849487 110.6875 123.046875 C113.68035945 124.18209755 116.62573674 125.12834602 119.6875 126.046875 C122.19113814 126.84987773 124.69102381 127.65978512 127.1875 128.484375 C128.16323975 128.80571411 128.16323975 128.80571411 129.15869141 129.13354492 C133.50164815 130.58722449 137.64074316 132.27769722 141.78515625 134.21484375 C144.65922105 135.47187825 147.67047651 136.19999121 150.6875 137.046875 C153.19242591 138.01288149 155.67322346 139.02989835 158.15625 140.05078125 C160.44082813 140.94980505 162.71643211 141.70360421 165.0625 142.421875 C168.7148179 143.59036132 171.9305758 145.18038067 175.3125 146.984375 C181.05836669 149.95234176 186.75876684 151.50962661 193.015625 153.0546875 C199.40634827 154.78154251 205.35057885 157.45289927 211.3125 160.30078125 C219.98861743 164.41935485 228.96689669 167.04136163 238.1484375 169.78125 C243.80326895 171.55786371 249.13407551 174.00268064 254.53417969 176.42480469 C259.78573874 178.74275111 265.07762237 180.48844509 270.59375 182.0859375 C277.30409036 184.17020988 283.68171372 187.12725323 290.0625 190.046875 C298.5621647 193.85706952 307.43599032 196.73701814 316.3828125 199.2890625 C318.8268176 200.09268452 321.05822173 201.11888917 323.375 202.234375 C327.39516986 204.11570004 330.28594447 204.42147547 334.6875 204.046875 C334.6565625 202.190625 334.6565625 202.190625 334.625 200.296875 C334.58895372 198.13409818 334.61572122 196.31287243 335.18041992 194.22021484 C335.74325356 191.80791583 335.84704798 189.60846716 335.8984375 187.1328125 C335.92679688 186.20726562 335.95515625 185.28171875 335.984375 184.328125 C336.036663 182.38301148 336.08087192 180.43766477 336.1171875 178.4921875 C336.148125 177.56921875 336.1790625 176.64625 336.2109375 175.6953125 C336.23075684 174.85145996 336.25057617 174.00760742 336.27099609 173.13818359 C336.40844238 172.44805176 336.54588867 171.75791992 336.6875 171.046875 C340.4080836 168.56648593 342.28546571 168.58350297 346.6875 169.046875 C349.1875 170.671875 349.1875 170.671875 350.6875 173.046875 C350.3862812 175.05196311 350.0476282 177.05152571 349.6875 179.046875 C349.66168019 181.22529575 349.69346542 183.40492582 349.7734375 185.58203125 C349.83917969 187.41411133 349.83917969 187.41411133 349.90625 189.28320312 C349.9578125 190.54583984 350.009375 191.80847656 350.0625 193.109375 C350.10632813 194.37587891 350.15015625 195.64238281 350.1953125 196.94726562 C350.46668254 204.55252197 350.46668254 204.55252197 351.6875 212.046875 C352.23277344 212.20542969 352.77804687 212.36398437 353.33984375 212.52734375 C357.52115031 213.82104715 361.27994292 215.26819327 365.0625 217.484375 C370.04009889 220.37853057 375.24434161 222.21824722 380.6875 224.046875 C381.6775 224.3975 382.6675 224.748125 383.6875 225.109375 C386.58569886 226.0657159 386.58569886 226.0657159 389.2109375 226.5859375 C396.25742696 228.1882899 400.82023022 230.64602751 405.6875 236.046875 C406.79397808 238.25983116 406.88338368 239.59360199 406.9375 242.046875 C406.96328125 242.748125 406.9890625 243.449375 407.015625 244.171875 C406.85320312 245.1 406.85320312 245.1 406.6875 246.046875 C402.26785575 248.9933045 399.01455542 247.68317742 393.9453125 246.80859375 C390.54365574 246.01324235 388.04049655 244.90285809 385.04296875 243.18359375 C381.06033367 241.26162558 376.78150429 240.16732072 372.55175781 238.9140625 C368.87315613 237.80132437 365.48800453 236.59686088 362.125 234.734375 C358.12642116 232.7714363 356.0367789 232.68443509 351.6875 233.046875 C349.87907542 237.69838782 349.43476053 241.5803613 349.42871094 246.55834961 C349.4252063 247.28615631 349.42170166 248.01396301 349.41809082 248.76382446 C349.40932407 251.1590544 349.41511023 253.55398601 349.421875 255.94921875 C349.42052559 257.63106848 349.41858276 259.31291783 349.41607666 260.99476624 C349.41313112 264.52104402 349.41739983 268.04722037 349.42675781 271.57348633 C349.43807294 276.05144699 349.43164007 280.52916575 349.41961288 285.00711727 C349.41231094 288.48454029 349.41472132 291.96190808 349.41986847 295.43933296 C349.4211862 297.08763216 349.4196245 298.73593668 349.41490936 300.38422966 C348.64495601 318.38882048 348.64495601 318.38882048 353.6875 335.046875 C355.61404933 336.06708229 355.61404933 336.06708229 357.875 336.609375 C360.68758303 337.43712887 363.18902899 338.27305474 365.875 339.484375 C369.28078298 341.00594008 372.77956269 341.940226 376.375 342.921875 C385.27594712 345.39594017 393.44144012 348.92384506 401.6875 353.046875 C402.698125 353.376875 403.70875 353.706875 404.75 354.046875 C409.26829591 355.58501829 412.02015999 357.04586499 414.6875 361.046875 C414.734375 363.01953125 414.734375 363.01953125 414.4375 365.109375 C414.30601562 366.14771484 414.30601562 366.14771484 414.171875 367.20703125 C413.6875 369.046875 413.6875 369.046875 411.6875 371.046875 C409.26449941 370.84907903 407.06017574 370.519592 404.6875 370.046875 C404.01460937 369.9334375 403.34171875 369.82 402.6484375 369.703125 C394.74934843 368.20947907 387.57171139 364.84512101 380.3125 361.484375 C375.50729012 359.57886074 370.58356762 358.26707021 365.6015625 356.9140625 C362.6875 356.046875 362.6875 356.046875 361.6875 355.046875 C360.00141034 354.97481989 358.31249341 354.96301432 356.625 354.984375 C354.97916667 355.00520833 353.33333333 355.02604167 351.6875 355.046875 C349.85772413 364.44785185 349.44253692 373.5821384 349.54717934 383.11618888 C349.58498852 386.59593385 349.5987241 390.07569497 349.61490077 393.55559713 C349.62398375 395.44028203 349.63427963 397.32496144 349.64571697 399.20963353 C349.70565246 409.37216429 349.66884161 419.53388923 349.62541211 429.69642437 C349.61138259 432.99553 349.59873073 436.29463841 349.58644009 439.59375095 C349.5602872 446.55599588 349.5322725 453.51823254 349.50390625 460.48046875 C349.49904418 461.67941938 349.49418211 462.87837 349.4891727 464.11365247 C349.44315429 475.4477509 349.39649468 486.78184651 349.34816074 498.11593533 C349.28685824 512.50015517 349.22897673 526.88438024 349.17550808 541.2686314 C349.13733665 551.46386443 349.09540186 561.65907774 349.05062145 571.85428387 C349.02408199 577.91960317 348.99922162 583.9849186 348.97842598 590.05026054 C348.95892727 595.71499238 348.93480504 601.37968508 348.90700912 607.0443821 C348.89761949 609.1258003 348.88995115 611.20722704 348.88408089 613.28865814 C348.87585663 616.11508432 348.86159301 618.94141503 348.84571838 621.76780701 C348.84474028 622.6013999 348.84376217 623.43499279 348.84275442 624.29384607 C348.80162956 629.93274544 348.80162956 629.93274544 347.6875 631.046875 C342.4346116 631.45886625 339.22608105 630.70360537 334.6875 628.046875 C334.77128906 627.34304688 334.85507812 626.63921875 334.94140625 625.9140625 C335.50811098 620.41917868 335.72342501 615.20053049 335.22293091 609.69377136 C334.57719619 601.39573784 334.54667909 593.13702403 334.55810547 584.8215332 C334.55674675 583.13915977 334.55496419 581.45678664 334.55279541 579.77441406 C334.54827247 575.24257548 334.54999054 570.71075992 334.5531745 566.17892098 C334.55573028 561.39631358 334.55335118 556.61370796 334.55178833 551.83110046 C334.54997367 543.78933362 334.55235206 535.74757599 334.55712891 527.70581055 C334.56254604 518.48112343 334.56082465 509.25645852 334.5553025 500.03177196 C334.55072225 492.05406168 334.55014526 484.07635799 334.55274117 476.09864682 C334.55428034 471.36008066 334.55456456 466.62152481 334.55120468 461.88295937 C334.53963419 443.05105811 334.61219601 424.26040746 335.46044922 405.44361877 C335.8025658 397.85309195 335.8386349 390.26872918 335.8125 382.671875 C335.81117065 381.61628387 335.81117065 381.61628387 335.80981445 380.53936768 C335.79251079 368.68869072 335.44880335 356.87426632 334.6875 345.046875 C334.08550781 344.7478125 333.48351562 344.44875 332.86328125 344.140625 C331.1888367 343.29889345 329.5286237 342.42880764 327.875 341.546875 C324.73328778 339.96245599 324.73328778 339.96245599 321.375 339.109375 C318.52738038 338.28887443 316.26334322 337.42753094 313.625 336.171875 C308.58427993 333.85071868 303.36512988 332.42845349 298.01953125 330.9765625 C288.98707073 328.45636836 280.47135299 324.91412181 272 320.921875 C267.5767226 318.84830091 263.39806522 317.2757181 258.6875 316.046875 C257.6975 315.386875 256.7075 314.726875 255.6875 314.046875 C253.67932133 313.40189195 251.65604713 312.80326186 249.625 312.234375 C244.41753134 310.68714484 239.86226447 308.73207668 235.07421875 306.203125 C231.91000999 304.67021863 228.69948154 303.73184007 225.3203125 302.7890625 C218.61887833 300.89993417 212.07799784 298.69934402 205.75 295.796875 C198.30499222 292.78541118 190.17879636 292.7775105 182.6875 295.671875 C181.00896065 296.438047 179.3428223 297.23175417 177.6875 298.046875 C175.60641365 299.03080831 173.52292285 300.00966649 171.4375 300.984375 C170.34308594 301.49613281 169.24867188 302.00789063 168.12109375 302.53515625 C163.4923953 304.57304738 158.76559528 306.23405505 153.98828125 307.88671875 C150.20813751 309.21536099 146.50731373 310.69739196 142.796875 312.20703125 C139.23428041 313.62547169 135.58938952 314.75991015 131.9375 315.921875 C126.29373158 317.87548715 120.78495158 320.17673223 115.26953125 322.46484375 C106.89710637 325.91244468 98.46094192 328.76412867 89.80273438 331.39941406 C79.47707844 334.56003728 69.47947523 337.91638404 59.75561523 342.64306641 C55.7679492 344.57736985 51.82660356 346.14237316 47.59375 347.4375 C45.75120896 348.02650902 43.96549076 348.78487896 42.1875 349.546875 C35.86303284 352.25736093 29.31242262 354.21444959 22.6875 356.046875 C20.8644486 352.17289077 20.6875 349.28205309 20.6875 345.046875 C20.0275 344.386875 19.3675 343.726875 18.6875 343.046875 C18.6875 341.726875 18.6875 340.406875 18.6875 339.046875 C21.78183418 337.28692735 24.35568985 336.71383135 27.875 336.296875 C38.60020144 334.64077772 48.93059893 330.4713671 58.734375 325.90625 C61.48368941 324.69655166 64.31141088 323.81112701 67.16796875 322.890625 C73.79550012 320.67117263 80.47782064 318.33498349 86.625 314.984375 C91.24389828 312.55286195 96.22531059 311.41207976 101.23828125 310.04296875 C104.99437365 308.9582535 108.53527524 307.61832678 112.13671875 306.109375 C115.08947739 304.87943572 118.07206278 303.74453504 121.0625 302.609375 C126.42740564 300.55473029 131.73796799 298.39235072 137.03125 296.16015625 C137.9078125 295.79277344 138.784375 295.42539062 139.6875 295.046875 C140.55375 294.67691406 141.42 294.30695313 142.3125 293.92578125 C144.6875 293.046875 144.6875 293.046875 148.1875 292.671875 C152.20516139 291.95443547 153.59245013 290.60029115 156.6875 288.046875 C159.00858669 287.33874686 161.34127147 286.66663348 163.6875 286.046875 C164.3475 285.386875 165.0075 284.726875 165.6875 284.046875 C165.6875 282.726875 165.6875 281.406875 165.6875 280.046875 C164.29220871 279.42066584 162.89623879 278.79596869 161.5 278.171875 C160.72269531 277.82382812 159.94539063 277.47578125 159.14453125 277.1171875 C158.33371094 276.76398438 157.52289062 276.41078125 156.6875 276.046875 C155.87410156 275.68722656 155.06070312 275.32757813 154.22265625 274.95703125 C151.53249829 273.99122724 149.14970193 273.66534776 146.3125 273.359375 C139.75462737 272.34551984 134.32021846 269.75797378 128.4453125 266.859375 C119.72370711 262.56843529 110.41305113 259.35317197 101.0625 256.734375 C97.37612626 255.63989772 93.90012687 254.33063205 90.375 252.796875 C84.80569059 250.39977533 79.13983243 248.52685718 73.375 246.671875 C64.41847465 243.76606837 56.11650767 240.23638178 47.6875 236.046875 C41.52340823 233.01679617 36.05288133 230.77421829 29.27734375 229.62890625 C23.03464022 228.22594573 17.21486237 225.17848499 11.3984375 222.57421875 C10.33882813 222.11144531 9.27921875 221.64867187 8.1875 221.171875 C7.2284375 220.74132812 6.269375 220.31078125 5.28125 219.8671875 C1.09590425 218.54350888 -1.50495443 220.0493486 -5.3125 221.859375 C-8.92113717 223.50344161 -12.53881893 224.82909272 -16.3125 226.046875 C-20.75565944 227.4828771 -24.94313221 229.1566427 -29.17578125 231.1171875 C-31.32021742 232.05023285 -33.45781932 232.78192693 -35.6875 233.484375 C-39.06541483 234.5599589 -42.179316 235.8885199 -45.375 237.421875 C-49.91561411 239.54591578 -54.46163919 241.11110073 -59.25 242.546875 C-65.05927574 244.29040485 -70.60201909 246.31217521 -76.17578125 248.72265625 C-83.98905367 252.02116105 -91.98881694 255.01583253 -100.0625 257.609375 C-103.48847246 258.71243431 -106.75573639 260.06350001 -110.0625 261.484375 C-114.34244064 263.30771706 -118.59950511 264.79733715 -123.0625 266.109375 C-126.61744611 267.15865071 -129.87660217 268.19954103 -133.125 269.984375 C-136.92936513 272.04339714 -140.93666492 273.24638502 -145.0625 274.484375 C-150.88162713 276.23632003 -156.44975277 278.23351219 -162.03125 280.65625 C-166.96920309 282.74900155 -171.98219553 284.64458041 -176.99560547 286.54833984 C-180.28883637 287.81206367 -183.44343194 289.11249647 -186.6015625 290.6953125 C-188.94601515 291.86416065 -190.78176886 292.51020244 -193.3125 293.046875 C-200.09914299 295.00562155 -206.73244086 297.12876641 -213.25 299.8515625 C-215.84015229 300.8625148 -218.43072862 301.78574342 -221.0625 302.6796875 C-221.93318115 302.97641357 -222.8038623 303.27313965 -223.70092773 303.57885742 C-225.43760261 304.16694535 -227.17659819 304.74823985 -228.91821289 305.3215332 C-234.07567787 307.07336343 -238.62183759 309.24082102 -243.33178711 311.96948242 C-245.6932879 313.25400146 -247.93516703 313.93772024 -250.5625 314.484375 C-256.06216903 315.84014299 -260.87724305 318.05759555 -265.9765625 320.4921875 C-272.61657951 323.58671533 -279.43978319 326.64605968 -286.6875 327.921875 C-291.76464111 328.87735174 -296.18982785 331.26835061 -300.79321289 333.51245117 C-304.92831745 335.4953211 -308.70278928 336.81470761 -313.19921875 337.59375 C-318.65660149 338.7639097 -323.81938581 341.36580537 -328.875 343.671875 C-332.95533406 345.30400862 -337.00833898 346.2172748 -341.3125 347.046875 C-343.62749807 343.57437789 -343.36859736 342.04973074 -342.71484375 338.0390625 C-341.86560472 333.83409255 -341.19560395 331.74179851 -337.74609375 329.02734375 C-333.82711578 326.76690936 -330.45334256 325.94931966 -326.0625 325.109375 C-320.20829421 323.86361395 -315.30906065 322.3464236 -310.0546875 319.41015625 C-305.60310215 317.19704616 -300.90224771 315.69332432 -296.19921875 314.10205078 C-292.01601761 312.68127328 -292.01601761 312.68127328 -287.9921875 310.87109375 C-286.3125 310.046875 -286.3125 310.046875 -283.3125 310.046875 C-283.3125 309.386875 -283.3125 308.726875 -283.3125 308.046875 C-282.62736328 307.82547852 -281.94222656 307.60408203 -281.23632812 307.37597656 C-278.09289945 306.35611331 -274.95271954 305.3265749 -271.8125 304.296875 C-270.73484375 303.94882812 -269.6571875 303.60078125 -268.546875 303.2421875 C-262.49673469 301.25006813 -256.952941 298.9960019 -251.3125 296.046875 C-249.80779148 295.48114215 -248.28902372 294.94871043 -246.75 294.484375 C-243.97720777 293.6122489 -241.48339686 292.67673967 -238.8125 291.484375 C-236.06110176 290.35433644 -233.86612554 289.68159621 -231 289.109375 C-226.75042447 288.24079622 -222.96834168 286.78785115 -218.9765625 285.11328125 C-216.14202212 283.97863385 -213.28335793 283.03749439 -210.375 282.109375 C-206.39679813 280.81544454 -202.65256361 279.34231584 -198.875 277.546875 C-193.8331736 275.16783137 -188.71956613 273.58175926 -183.37890625 272.01171875 C-179.94089476 270.92994953 -176.75059494 269.57462647 -173.4921875 268.046875 C-171.10920657 266.95360776 -168.69321914 265.99742834 -166.25 265.046875 C-163.19394836 263.84980408 -160.31837042 262.55304772 -157.4375 260.984375 C-153.24135915 258.81016492 -148.90269751 257.88655111 -144.3203125 256.82421875 C-140.67938281 255.88325121 -137.33417842 254.53998626 -133.875 253.08203125 C-130.16641083 251.58389691 -126.37253171 250.38415782 -122.5625 249.171875 C-118.9850113 247.93351353 -115.49357006 246.53557472 -111.984375 245.1171875 C-106.74188215 243.01712458 -101.4502032 241.04429305 -96.16796875 239.046875 C-85.47240787 235.10600618 -85.47240787 235.10600618 -75.1015625 230.4140625 C-72.00668642 228.89696638 -69.02117209 228.03786338 -65.6875 227.171875 C-58.95358371 225.31473177 -52.7043423 222.83555966 -46.3125 220.046875 C-44.52410093 219.30973034 -42.73258398 218.58008782 -40.9375 217.859375 C-40.18726563 217.55644531 -39.43703125 217.25351562 -38.6640625 216.94140625 C-34.26124387 215.26657989 -29.77417984 213.87988804 -25.2734375 212.49609375 C-23.41133616 211.9092417 -21.54935997 211.32199241 -19.6875 210.734375 C-18.74648438 210.45142578 -17.80546875 210.16847656 -16.8359375 209.87695312 C-15.9284375 209.58626953 -15.0209375 209.29558594 -14.0859375 208.99609375 C-13.26528809 208.74174561 -12.44463867 208.48739746 -11.59912109 208.2253418 C-8.44493937 206.59975615 -7.21047184 205.07109358 -5.3125 202.046875 C-4.74299285 198.95291394 -4.79625407 195.91278003 -4.8425293 192.77441406 C-4.8392437 191.3858445 -4.8392437 191.3858445 -4.83589172 189.96922302 C-4.83358445 186.91661584 -4.85980966 183.86497818 -4.88671875 180.8125 C-4.89164229 178.69212144 -4.89494141 176.57173854 -4.89668274 174.45135498 C-4.90431837 170.01283847 -4.9248707 165.57464493 -4.95581055 161.13623047 C-4.99548158 155.43390158 -5.01343489 149.73178239 -5.02311993 144.02933121 C-5.03306866 138.60285882 -5.05297287 133.17643817 -5.07421875 127.75 C-5.07931237 126.18747875 -5.07931237 126.18747875 -5.0845089 124.59339142 C-5.09602717 121.66278335 -5.11453672 118.73231166 -5.13549805 115.80175781 C-5.13818695 114.92488815 -5.14087585 114.04801849 -5.14364624 113.14457703 C-4.80045049 109.28421521 -4.80045049 109.28421521 -6.3125 106.046875 C-13.11597676 105.49593432 -18.41060802 106.40397311 -24.6875 109.046875 C-27.3125 110.046875 -27.3125 110.046875 -30.9375 110.859375 C-35.34023453 111.91273952 -39.22277676 113.75634063 -43.3046875 115.68359375 C-47.55043974 117.60796717 -51.89942711 119.21818466 -56.26953125 120.8359375 C-59.38436483 122.07547333 -62.31640636 123.54679002 -65.3125 125.046875 C-66.67505186 125.54098721 -68.04999939 126.00290423 -69.4375 126.421875 C-73.1554503 127.60287098 -76.67665196 129.04517515 -80.25 130.609375 C-84.76713554 132.5338689 -88.92215734 133.64720356 -93.7421875 134.453125 C-97.86049364 135.40446624 -101.59998015 137.18005429 -105.4609375 138.87109375 C-109.0418775 140.34761833 -112.52921809 141.24656537 -116.3125 142.046875 C-119.68568554 137.54929428 -119.83054578 134.48635565 -119.3125 129.046875 C-118.375 126.671875 -118.375 126.671875 -116.3125 125.046875 C-114.14419871 124.42736035 -111.97964258 124.0087176 -109.76171875 123.6015625 C-106.52209237 122.86786721 -103.75212592 121.52566245 -100.7578125 120.1171875 C-97.0219243 118.48199043 -93.1537076 117.29924304 -89.27734375 116.04296875 C-85.79901101 114.87435894 -82.42725198 113.51654126 -79.03515625 112.12109375 C-74.51372759 110.33717283 -69.91100786 108.77896223 -65.31640625 107.1953125 C-62.19717015 106.12959589 -62.19717015 106.12959589 -59.3125 104.046875 C-57.31741933 103.36562794 -55.31611307 102.70260291 -53.3125 102.046875 C-51.76886609 101.40575789 -50.22738721 100.75943975 -48.6875 100.109375 C-44.93143314 98.57536571 -41.26832157 97.50426523 -37.3125 96.609375 C-31.45144541 95.23251622 -26.59411657 92.86679898 -21.3125 90.046875 C-17.07866266 88.06883966 -12.75477929 86.49319849 -8.3125 85.046875 C-6.19299013 84.2675334 -6.19299013 84.2675334 -5.698349 82.45828247 C-5.16550707 79.12822589 -5.15126388 75.82768593 -5.13891602 72.46435547 C-5.132229 71.70620544 -5.12554199 70.94805542 -5.11865234 70.16693115 C-5.10462883 68.52457136 -5.09272624 66.8821924 -5.08270454 65.23980331 C-5.06627222 62.64288034 -5.04303657 60.04610079 -5.01780701 57.44924927 C-4.94707027 50.06731309 -4.88676165 42.68532075 -4.83569336 35.30322266 C-4.80396622 30.78573712 -4.76271587 26.26842083 -4.71549797 21.75107193 C-4.69945047 20.02786411 -4.68714165 18.30461737 -4.67859077 16.58135605 C-4.66648493 14.17759663 -4.64235876 11.77423842 -4.61547852 9.37060547 C-4.61488937 8.6547226 -4.61430023 7.93883972 -4.61369324 7.20126343 C-4.50792397 0.09137684 -4.50792397 0.09137684 0 0 Z " fill="#010203" transform="translate(355.3125,45.953125)"/>
<path d="M0 0 C-0.00222061 0.785457 -0.00444122 1.570914 -0.00672913 2.38017273 C-0.0268921 9.83720776 -0.04205492 17.29422928 -0.05181217 24.7512846 C-0.05699732 28.58363205 -0.06401409 32.41595669 -0.07543945 36.24829102 C-0.0864255 39.95711804 -0.09230959 43.66592334 -0.09487724 47.3747654 C-0.09670352 48.77910516 -0.1002686 50.18344394 -0.10573006 51.58777428 C-0.13025806 58.16543941 -0.08446675 64.68081964 0.49780273 71.23535156 C1.25421377 80.05456107 1.14410119 88.87801662 1.1328125 97.72265625 C1.13348755 99.60021477 1.13445924 101.4777732 1.13571167 103.35533142 C1.13717593 107.26253097 1.13507312 111.16970746 1.13037109 115.0769043 C1.12463878 120.08367499 1.12798283 125.09039249 1.13394356 130.09716129 C1.1375533 133.96185204 1.13640929 137.82653011 1.13381577 141.69122124 C1.13314948 143.5384058 1.13396448 145.38559152 1.13629532 147.23277473 C1.13883248 149.80503537 1.1349678 152.37720877 1.12939453 154.94946289 C1.13141876 155.70947098 1.13344299 156.46947906 1.13552856 157.2525177 C1.11422157 162.55628563 1.11422157 162.55628563 0.49860334 164.94776613 C-0.04725078 167.19448257 -0.11652643 169.14555382 -0.10463715 171.45621014 C-0.1025281 172.34834011 -0.10041905 173.24047008 -0.0982461 174.15963429 C-0.09076019 175.13560167 -0.08327428 176.11156906 -0.07556152 177.11711121 C-0.06965948 178.67701286 -0.06965948 178.67701286 -0.06363821 180.26842767 C-0.04919718 183.76387133 -0.02748989 187.25923266 -0.00585938 190.75463867 C0.005918 193.25603531 0.01723406 195.75743417 0.02812195 198.25883484 C0.0525212 203.64994901 0.07996536 209.04103477 0.11003113 214.43211937 C0.15341443 222.22781506 0.19024353 230.02353129 0.22527176 237.8192685 C0.28219354 250.46864185 0.34291848 263.11799363 0.40673828 275.76733398 C0.41055671 276.52442582 0.41437513 277.28151766 0.41830927 278.06155167 C0.44544403 283.43686826 0.4727119 288.81218418 0.5 294.1875 C0.53118957 300.33292592 0.56230417 306.47835221 0.59326172 312.6237793 C0.59707684 313.38085988 0.60089196 314.13794046 0.6048227 314.91796287 C0.66822218 327.52336682 0.72770671 340.12878632 0.7843852 352.73422223 C0.81956179 360.51475275 0.85832752 368.29525002 0.90165842 376.07573948 C0.93456338 382.02850904 0.9624342 387.98129513 0.98841286 393.9340992 C0.99996261 396.38316608 1.01325719 398.83222541 1.02837181 401.28127289 C1.04867846 404.60879279 1.06291447 407.93628325 1.07556152 411.26383972 C1.08304743 412.24649927 1.09053334 413.22915882 1.0982461 414.24159592 C1.10035514 415.12590265 1.10246419 416.01020938 1.10463715 416.92131329 C1.1085967 417.69035699 1.11255626 418.45940069 1.1166358 419.25174874 C1 421 1 421 0 422 C-2.94172433 422.10592717 -5.86009805 422.14677624 -8.80249023 422.14526367 C-9.72601288 422.14862228 -10.64953552 422.1519809 -11.6010437 422.15544128 C-14.67024053 422.16498199 -17.73938299 422.16689594 -20.80859375 422.16796875 C-22.93229699 422.17117912 -25.056 422.17454302 -27.17970276 422.17805481 C-31.63779208 422.18405387 -36.095862 422.18589391 -40.55395508 422.18530273 C-46.27874238 422.18520106 -52.0034058 422.1988555 -57.72816372 422.21607494 C-62.11607947 422.2271696 -66.50396504 422.22922273 -70.89189339 422.22869301 C-73.00309743 422.22987688 -75.11430216 422.23432123 -77.22549248 422.24202538 C-80.17312276 422.25177444 -83.12048099 422.24896745 -86.06811523 422.24291992 C-86.9476738 422.24853943 -87.82723236 422.25415894 -88.73344421 422.25994873 C-94.77168478 422.22831522 -94.77168478 422.22831522 -97 420 C-97.25069833 418.05471659 -97.25069833 418.05471659 -97.25168228 415.62088776 C-97.25689778 414.69503923 -97.26211327 413.7691907 -97.26748681 412.81528616 C-97.26302537 411.79137478 -97.25856392 410.76746341 -97.25396729 409.71252441 C-97.25864726 408.08886577 -97.25864726 408.08886577 -97.26342177 406.43240595 C-97.27144167 402.78105487 -97.2650626 399.12986814 -97.25878906 395.47851562 C-97.26149715 392.87066042 -97.26505705 390.26280598 -97.26940918 387.654953 C-97.27832046 381.29242737 -97.27637348 374.92994882 -97.2705839 368.56742132 C-97.26607421 363.39824052 -97.26545149 358.22907295 -97.26763153 353.05989075 C-97.267938 352.32526844 -97.26824446 351.59064614 -97.26856022 350.83376256 C-97.26919964 349.34157208 -97.26984807 347.84938161 -97.2705054 346.35719115 C-97.27621377 332.35219471 -97.26964286 318.34722443 -97.25890467 304.34223229 C-97.24996869 292.31521858 -97.25152059 280.28824348 -97.26074219 268.26123047 C-97.27143588 254.30767032 -97.2756644 240.35413311 -97.26951766 226.40056944 C-97.26888054 224.91374938 -97.26825179 223.42692932 -97.26763153 221.94010925 C-97.2671687 220.84268252 -97.2671687 220.84268252 -97.26669653 219.72308555 C-97.26496688 214.55780117 -97.26789049 209.39253129 -97.27259064 204.22724915 C-97.27877296 197.2801426 -97.27439582 190.33311042 -97.26280212 183.38601112 C-97.26014718 180.82933486 -97.26093473 178.27265249 -97.26532745 175.71597862 C-97.27075153 172.23972643 -97.26398706 168.76371239 -97.25396729 165.28747559 C-97.26065945 163.75160852 -97.26065945 163.75160852 -97.26748681 162.18471384 C-97.25966357 160.79594105 -97.25966357 160.79594105 -97.25168228 159.37911224 C-97.25135758 158.57594873 -97.25103287 157.77278522 -97.25069833 156.94528341 C-97 155 -97 155 -95 153 C-87.97097507 152.24302808 -81.07739379 152.13256759 -75 156 C-73.46733661 159.72438221 -73.88198043 163.86407912 -73.91821289 167.82617188 C-73.92127945 168.61037003 -73.92434601 169.39456818 -73.92750549 170.20252991 C-73.93464913 171.90220667 -73.94403317 173.60187517 -73.95540047 175.30152893 C-73.97280245 177.99134875 -73.9830934 180.68110908 -73.99131775 183.37097168 C-74.01576372 191.01771675 -74.05138428 198.66438145 -74.09594727 206.31103516 C-74.12272111 210.99051892 -74.13976927 215.66995654 -74.15081596 220.34950256 C-74.15702602 222.13250944 -74.16703167 223.91550727 -74.18089485 225.69847107 C-74.20010008 228.19031647 -74.20700544 230.68191871 -74.21118164 233.17382812 C-74.22432404 234.27894493 -74.22432404 234.27894493 -74.23773193 235.40638733 C-74.23067536 239.09256332 -74.13874436 241.92222505 -72 245 C-69.76802871 246.98922073 -69.76802871 246.98922073 -67 248 C-63.14695198 247.10394232 -62.23230734 246.34846101 -60 243 C-59.80465385 239.94509318 -59.72713941 236.98157637 -59.74121094 233.92626953 C-59.7377063 232.99752014 -59.73420166 232.06877075 -59.73059082 231.11187744 C-59.72177392 228.03544687 -59.72762351 224.9592455 -59.734375 221.8828125 C-59.73302811 219.74673417 -59.73108738 217.61065614 -59.72857666 215.47457886 C-59.72562526 210.99392788 -59.72992273 206.51335657 -59.73925781 202.03271484 C-59.75063853 196.29033102 -59.74410167 190.54813443 -59.73211288 184.80575752 C-59.72488298 180.39283846 -59.72718767 175.97996371 -59.73236847 171.5670433 C-59.73370255 169.44994968 -59.73206571 167.33285202 -59.72740936 165.21576309 C-59.72232717 162.2545737 -59.73007897 159.29368645 -59.74121094 156.33251953 C-59.73513824 155.02004745 -59.73513824 155.02004745 -59.72894287 153.68106079 C-59.75917905 149.33677016 -59.9695713 145.95573966 -62 142 C-63.19625 141.87625 -64.3925 141.7525 -65.625 141.625 C-69.30135258 141.16224233 -72.50327717 140.25882022 -76 139 C-82.47378339 136.67574106 -89.04676541 135.3330042 -95.8125 134.1875 C-96.63709717 134.03933838 -97.46169434 133.89117676 -98.3112793 133.73852539 C-102.95426533 132.99615862 -105.67314486 132.91191568 -110 135 C-112.28294712 135.38858674 -114.57641088 135.71833481 -116.875 136 C-124.06271998 136.9757423 -130.26804674 138.70669852 -137 141.375 C-143.14676134 143.78675011 -149.29321216 145.5136704 -155.6875 147.10546875 C-158.5934468 147.89021146 -161.22225855 148.85984939 -164 150 C-166.13985581 150.68561087 -168.2861654 151.35130547 -170.4375 152 C-173.62893028 152.96458814 -176.80908019 153.93569017 -179.96875 155 C-184.48831062 156.49098907 -189.07564417 157.7256948 -193.66015625 159 C-196.53336773 159.8602832 -199.22129244 160.88497722 -202 162 C-204.05608932 162.6055417 -206.11944966 163.18666012 -208.1875 163.75 C-213.97687992 165.38666015 -219.71779018 167.13412085 -225.4375 169 C-226.18217529 169.23686523 -226.92685059 169.47373047 -227.6940918 169.71777344 C-232.520731 171.3134819 -236.78445639 173.12799093 -241 176 C-242.33622218 179.37030747 -242.09891389 182.82352808 -242.0625 186.40625 C-242.05412109 187.69329834 -242.04574219 188.98034668 -242.03710938 190.30639648 C-242.03090576 190.98934784 -242.02470215 191.67229919 -242.01831055 192.37594604 C-241.91157687 204.75723096 -242.05468236 217.09786517 -242.64453125 229.46875 C-243.42897249 247.19712205 -243.02857973 264.96222975 -242.74609375 282.69921875 C-242.73390934 283.46919378 -242.72172493 284.23916882 -242.7091713 285.03247643 C-242.59515323 292.20687834 -242.4787134 299.38123342 -242.35180664 306.55541992 C-242.28169011 310.53289876 -242.21764549 314.51043855 -242.15730476 318.48807716 C-242.13361769 319.97535724 -242.10775954 321.46260473 -242.07946587 322.94980431 C-241.92075477 331.33013611 -242.05472786 339.6068533 -242.76478577 347.96516418 C-243.38240154 355.93391011 -242.94758506 363.72566444 -242.12109375 371.6640625 C-242.02519726 374.30585622 -242.1345119 376.50425626 -242.46484375 379.09765625 C-243.19719769 384.9986555 -243.14568029 390.87381084 -243.125 396.8125 C-243.12886719 397.91142578 -243.13273437 399.01035156 -243.13671875 400.14257812 C-243.12807669 407.47536272 -242.72362467 414.70358859 -242 422 C-244.75420789 422.9180693 -246.29182894 423.11454188 -249.1191864 423.08229065 C-249.95631165 423.07525116 -250.79343689 423.06821167 -251.65592957 423.06095886 C-252.57086685 423.04801285 -253.48580414 423.03506683 -254.4284668 423.02172852 C-255.87752914 423.0073172 -255.87752914 423.0073172 -257.35586548 422.99261475 C-260.55372334 422.95959452 -263.75144588 422.91927355 -266.94921875 422.87890625 C-269.16453065 422.8546081 -271.37984757 422.83076439 -273.59516907 422.80735779 C-279.42971518 422.74448657 -285.26417243 422.67542845 -291.09863281 422.60510254 C-297.05074004 422.53444657 -303.00291033 422.46961322 -308.95507812 422.40429688 C-320.63678806 422.27524536 -332.31841243 422.13966084 -344 422 C-344.66 420.68 -345.32 419.36 -346 418 C-343.14265609 416.09510406 -341.79984829 415.59976653 -338.54296875 415 C-337.67736328 414.835 -336.81175781 414.67 -335.91992188 414.5 C-335.01822266 414.335 -334.11652344 414.17 -333.1875 414 C-327.62960862 412.96971746 -322.35244851 411.849159 -317 410 C-313.44401806 409.08932712 -309.85830929 408.30555991 -306.27734375 407.5 C-303.1330803 406.78002554 -300.10085069 406.0346841 -297.046875 404.984375 C-294.50733662 404.16390875 -292.1614376 403.61500634 -289.546875 403.140625 C-288.763125 402.99367188 -287.979375 402.84671875 -287.171875 402.6953125 C-285.54485829 402.39615136 -283.9144085 402.11514188 -282.28125 401.8515625 C-280.02920921 401.41159427 -278.07642522 400.9791838 -276 400 C-274.37623848 397.12984688 -274.37623848 397.12984688 -274 394 C-273.67 393.01 -273.34 392.02 -273 391 C-272.92374806 389.41414862 -272.90659031 387.82513203 -272.92443848 386.23754883 C-272.93292722 385.25138014 -272.94141596 384.26521145 -272.95016193 383.24915886 C-272.9646749 382.16275675 -272.97918787 381.07635464 -272.99414062 379.95703125 C-273.00531764 378.80477114 -273.01649466 377.65251102 -273.02801037 376.46533394 C-273.05971998 373.26007825 -273.09584791 370.05490347 -273.13330245 366.84971094 C-273.1722624 363.39096952 -273.20444875 359.93216698 -273.23677063 356.47335815 C-273.25035047 355.02809707 -273.26393949 353.58283607 -273.27753735 352.13757515 C-273.28781399 351.04428662 -273.28781399 351.04428662 -273.29829824 349.92891145 C-273.31987946 347.65943482 -273.34209729 345.38996526 -273.36451435 343.12049675 C-273.91957452 286.82636329 -274.13946105 230.5350301 -273.84707391 174.23870206 C-273.81815762 168.50387049 -273.79989073 162.76906589 -273.78613281 157.03417969 C-273.76903866 150.03914965 -273.73751589 143.04436954 -273.68685979 136.04949868 C-273.6611954 132.47410917 -273.64159108 128.89896916 -273.63854408 125.32348251 C-273.63483389 121.4469891 -273.5999875 117.57113949 -273.56176758 113.69482422 C-273.56522942 112.55742294 -273.56869125 111.42002167 -273.572258 110.24815369 C-273.54921726 108.69287209 -273.54921726 108.69287209 -273.52571106 107.10617065 C-273.52072507 106.21026152 -273.51573908 105.31435238 -273.510602 104.39129448 C-272.8324648 101.21538497 -271.4862383 100.02502763 -269 98 C-266.1171875 96.91015625 -266.1171875 96.91015625 -262.875 96.0625 C-258.59150072 94.84684769 -254.74820778 93.5207431 -250.8125 91.4375 C-246.00652556 88.90722774 -241.23300668 87.40090405 -236 86 C-228.04024458 83.85554825 -220.42934792 81.50572996 -212.86328125 78.21875 C-210.10241313 77.04359195 -207.32733601 76.00311778 -204.5 75 C-199.73935497 73.30025334 -195.09707019 71.38854399 -190.44140625 69.421875 C-185.49334978 67.37750207 -180.50108931 65.45176235 -175.50708008 63.52294922 C-171.53146198 61.98696283 -167.56906807 60.42829563 -163.625 58.8125 C-160.08626097 57.37870057 -156.50914144 56.17069979 -152.875 55 C-148.64707336 53.62308903 -144.82598031 51.99982703 -140.90234375 49.9296875 C-138.22255972 48.62005999 -135.45866971 47.74862691 -132.62109375 46.84375 C-121.92170316 43.46965558 -121.92170316 43.46965558 -111.75 38.8125 C-108.91612483 37.29949885 -106.41647384 36.60360629 -103.25 36.0625 C-98.11485425 35.18038907 -93.70548868 33.30933371 -88.94921875 31.2265625 C-86.25431383 30.10576761 -83.61837223 29.22923449 -80.8125 28.4375 C-75.34120909 26.87927635 -70.16860751 24.75502614 -65.1875 21.99609375 C-60.20062364 19.25546127 -55.0592253 17.87503963 -49.57324219 16.50219727 C-45.13424781 15.36913229 -41.14024132 13.90766264 -37.0234375 11.92578125 C-34.9594856 10.98146349 -32.917586 10.29405633 -30.75 9.625 C-26.83896751 8.38058057 -23.21087246 6.751877 -19.5 5 C-5.55445622 -1.54054159 -5.55445622 -1.54054159 0 0 Z " fill="#000102" transform="translate(355,302)"/>
<path d="M0 0 C3.12847378 1.42167353 6.16602301 2.95556773 9.203125 4.5625 C14.04027998 7.04863552 18.71610388 8.47380475 24 9.75 C30.45170379 11.37724186 36.21341981 13.76734826 42.20703125 16.6875 C45.40337047 18.18955591 48.58971772 19.09917072 52 20 C57.74408648 22.14583329 63.36530849 24.58513221 69 27 C74.27284763 29.15431007 79.56439668 31.24575139 84.91796875 33.19140625 C86.70392685 33.88501474 88.45449377 34.66856926 90.1953125 35.46875 C94.93627796 37.51734646 99.89662888 38.39958793 104.94726562 39.37304688 C105.66978516 39.52708984 106.39230469 39.68113281 107.13671875 39.83984375 C107.78342529 39.96738037 108.43013184 40.09491699 109.09643555 40.22631836 C112.01234702 41.41145667 113.11213124 42.40633466 115 45 C115.60884339 48.58436965 115.51717408 52.14593791 115.47428894 55.77354431 C115.47835714 57.43946848 115.47835714 57.43946848 115.48250753 59.13904768 C115.48676672 62.87413807 115.46237558 66.60849894 115.43823242 70.34350586 C115.43546807 73.01576789 115.43429398 75.68798601 115.43513489 78.36024475 C115.4338211 84.12137348 115.41795939 89.88231502 115.39235497 95.64338493 C115.35542123 103.97835553 115.34153047 112.3132407 115.33345763 120.64828343 C115.3198207 134.1782539 115.28904964 147.70812764 115.24682617 161.23803711 C115.20589727 174.36921262 115.17047821 187.50037801 115.14428711 200.6315918 C115.14267081 201.44017668 115.14105452 202.24876157 115.13938924 203.08184903 C115.12190968 211.90872541 115.10605647 220.73560407 115.09147358 229.56248569 C115.09018575 230.33822402 115.08889792 231.11396234 115.08757106 231.91320788 C115.07985118 236.56483574 115.07985118 236.56483574 115.07230047 241.21646387 C115.05765401 250.29759768 115.03801844 259.37869019 115.0094975 268.45979155 C114.99165183 274.1560986 114.97689205 279.85240748 114.96455141 285.54872911 C114.9572426 288.83640073 114.94759641 292.12403878 114.93462753 295.41169357 C114.92074066 298.97429192 114.91296554 302.53685343 114.90666199 306.09947205 C114.90102067 307.1405173 114.89537935 308.18156255 114.88956708 309.25415462 C114.88885346 310.68661269 114.88885346 310.68661269 114.88812542 312.1480093 C114.88557741 312.97021385 114.8830294 313.79241839 114.88040417 314.63953823 C115.00996451 317.19666935 115.3452426 319.52401563 116 322 C117.73142854 323.15922128 117.73142854 323.15922128 120 324 C120.804375 324.61875 121.60875 325.2375 122.4375 325.875 C127.34163195 329.22782491 133.34791274 330.41855024 139 332 C146.07245002 334.00386084 152.97966405 336.12507614 159.75 339 C164.81595466 341.07895309 169.96419752 342.25777283 175.3125 343.38671875 C178 344 178 344 180 345 C179.67 346.65 179.34 348.3 179 350 C174.09716266 350.79791702 169.44211517 351.12207116 164.45880127 351.11352539 C163.3688217 351.11374868 163.3688217 351.11374868 162.25682235 351.11397648 C159.83947891 351.11328599 157.42221293 351.10546217 155.00488281 351.09765625 C153.2648981 351.09573574 151.52491283 351.09427257 149.78492737 351.0932312 C146.04724343 351.09007693 142.30958225 351.08381867 138.57190704 351.07516479 C132.66445588 351.06162515 126.75701223 351.05574497 120.84954834 351.05102539 C108.31635547 351.03993624 95.78318067 351.02038669 83.25 351 C69.70547107 350.97798588 56.16094942 350.95741661 42.6164062 350.94658184 C36.74061793 350.94159207 30.86486394 350.93172209 24.98908949 350.91815186 C21.34083522 350.91070936 17.69258571 350.90738012 14.04432487 350.9051857 C12.3491659 350.90330882 10.65400785 350.89969825 8.95885658 350.89425278 C6.6503035 350.88706838 4.34182648 350.88599759 2.03326416 350.88647461 C0.7398624 350.884254 -0.55353935 350.88203339 -1.8861351 350.87974548 C-5.03394141 350.85610144 -5.03394141 350.85610144 -8 352 C-8.99 351.34 -9.98 350.68 -11 350 C-11.37259549 347.50098073 -11.37259549 347.50098073 -11.36914349 344.27220726 C-11.37511663 343.04555332 -11.38108978 341.81889937 -11.38724393 340.5550741 C-11.3786837 339.1814389 -11.36984689 337.80780542 -11.36076355 336.43417358 C-11.36207066 334.98464082 -11.36469533 333.53510874 -11.36853105 332.08558047 C-11.37526661 328.08805683 -11.36320146 324.09077249 -11.34819686 320.09327936 C-11.33528477 315.78788902 -11.33962253 311.48251301 -11.34190369 307.17710876 C-11.34347949 299.71296344 -11.3340383 292.24889656 -11.31719017 284.78477097 C-11.2928462 273.99280789 -11.28499963 263.20088289 -11.2812262 252.40889533 C-11.27465447 234.90115609 -11.25467377 217.3934587 -11.22631836 199.88574219 C-11.19879643 182.87500214 -11.17755373 165.86427344 -11.16479492 148.85351562 C-11.16400675 147.80560562 -11.16321858 146.75769562 -11.16240653 145.67803077 C-11.15849152 140.4211631 -11.15470037 135.16429535 -11.15097082 129.90742755 C-11.11985246 86.27158937 -11.06699706 42.63579684 -11 -1 C-7.42376341 -2.7881183 -3.6288452 -1.16604104 0 0 Z " fill="#010102" transform="translate(539,374)"/>
<path d="M0 0 C5.5985488 0.44432927 10.42252391 1.28669257 15.69921875 3.19140625 C18.02900624 4.01019404 20.36825064 4.6622324 22.75 5.3125 C28.06427903 6.87455091 32.91894146 9.22036326 37.9140625 11.58984375 C41.09302338 13.04250815 44.2408925 14.18773831 47.5703125 15.23046875 C54.99915959 17.58333511 62.33776099 20.24296899 69.5 23.3125 C75.27402864 25.77598194 81.15447606 27.88564236 87.0625 30 C93.66356331 32.36552751 100.10298304 34.82343731 106.43359375 37.8515625 C110.73514512 39.77645763 115.1913321 41.26006398 119.640625 42.8046875 C122.57643217 43.84928866 125.43978512 44.98310091 128.3125 46.1875 C131.35286583 47.43533744 134.21112011 48.32186568 137.4375 48.9375 C142.04893075 49.85491492 146.00493712 51.69568148 150.23828125 53.703125 C156.48430037 56.63619197 162.90739664 59.01809784 169.4609375 61.16015625 C176.96512131 63.64230936 184.41492115 66.17131295 191.5625 69.5625 C196.5522083 71.91405619 201.6271946 73.47337308 206.91015625 75.03125 C219.39649464 78.94605648 219.39649464 78.94605648 223 83 C224.45851865 89.77443529 224.06961732 96.66811071 224 103.5625 C223.94554204 112.27577413 223.97365772 120.85874554 224.87890625 129.53125 C224.99764731 131.95203552 224.60527517 133.68062623 224 136 C224.33 136.66 224.66 137.32 225 138 C225.28501159 143.34955925 225.31379948 148.70020636 225.35009766 154.05664062 C225.36663423 155.84518466 225.39389412 157.63366323 225.43212891 159.421875 C225.48707034 162.00555573 225.50879843 164.58768772 225.5234375 167.171875 C225.54610687 167.96583679 225.56877625 168.75979858 225.59213257 169.57781982 C225.5766374 173.67653793 225.22792119 176.23674769 222.62011719 179.49023438 C219.8386547 182.15454992 218.80127583 182.97675061 215 183 C212.1328125 182.328125 212.1328125 182.328125 209.125 181.25 C208.0628125 180.87230469 207.000625 180.49460937 205.90625 180.10546875 C202.55966446 178.83250678 199.28799678 177.41723999 196 176 C193.69039715 175.17930079 191.37754093 174.36773163 189.0625 173.5625 C185.21777735 172.21077646 181.52384199 170.87565078 177.9375 168.9375 C174.68011081 167.20160894 171.41710993 166.16077944 167.875 165.125 C161.76277384 163.33104035 156.05759902 160.95910668 150.23828125 158.3828125 C146.80756543 156.91782649 143.35987249 155.75796831 139.8046875 154.64453125 C138 154 138 154 135.5625 152.5 C132.36752914 150.62977315 129.14891829 149.74224808 125.59765625 148.74609375 C122.70039249 147.91394732 119.85591275 146.96419134 117 146 C115.58460938 145.53980469 115.58460938 145.53980469 114.140625 145.0703125 C108.59823585 143.25780145 103.18177323 141.29830934 97.79296875 139.07421875 C93.58802976 137.45693452 89.30027343 136.09381789 85.00073242 134.75024414 C82.0809423 133.81346389 80.20108904 133.20108904 78 131 C75.67895368 130.29173954 73.34312381 129.63139504 71 129 C63.88363762 126.59346228 56.88091404 124.01039989 50 121 C49.08863281 120.71382813 48.17726563 120.42765625 47.23828125 120.1328125 C43.69217081 118.89231548 40.51704711 117.30014243 37.1875 115.5625 C31.8818093 112.85964001 26.72795377 110.62192432 21 109 C18.85286085 108.39113383 16.70655261 107.77971299 14.56176758 107.16259766 C13.05212476 106.72990459 11.54029481 106.30475121 10.02612305 105.88818359 C4.54517977 104.33043523 0.28303123 102.92454685 -3 98 C-3.13426208 95.94174194 -3.13426208 95.94174194 -2.97436523 93.51708984 C-2.89642479 92.12207748 -2.89642479 92.12207748 -2.81690979 90.69888306 C-2.71998085 89.15797501 -2.71998085 89.15797501 -2.62109375 87.5859375 C-2.06715695 76.82930972 -1.92048242 66.11807729 -1.97265625 55.3515625 C-1.97845419 53.81150336 -1.98418102 52.27144395 -1.98983765 50.73138428 C-2.01563638 44.40761078 -2.05209224 38.08392673 -2.09594727 31.76025391 C-2.12266795 27.82814558 -2.13973232 23.89609108 -2.15081596 19.96390915 C-2.15700456 18.48150952 -2.1669832 16.99912049 -2.18089485 15.51677322 C-2.20004216 13.46765251 -2.20699345 11.41882678 -2.21118164 9.36962891 C-2.21863907 8.20815338 -2.2260965 7.04667786 -2.23377991 5.8500061 C-2 3 -2 3 0 0 Z " fill="#FFFFFF" transform="translate(467,188)"/>
<path d="M0 0 C7.36329563 0.65530948 13.34175842 3.14179904 20.0390625 6.15234375 C23.75288339 7.65179103 27.47569678 8.99262322 31.33203125 10.0859375 C46.72544991 14.51418122 46.72544991 14.51418122 52.6640625 18.21484375 C57.51688588 21.00072384 62.70949164 22.50709035 68.0390625 24.15234375 C68.0390625 24.81234375 68.0390625 25.47234375 68.0390625 26.15234375 C69.8334375 26.24515625 69.8334375 26.24515625 71.6640625 26.33984375 C76.37238596 26.96706268 78.89773988 28.47469776 82.0390625 32.15234375 C82.50183392 34.10605907 82.50183392 34.10605907 82.68815613 36.2922821 C82.75640783 37.09125601 82.82465954 37.89022991 82.89497948 38.71341515 C83.11567893 42.44924878 83.20275833 46.17139296 83.21606445 49.91333008 C83.22263565 50.73727264 83.22920685 51.56121521 83.23597717 52.41012573 C83.25548486 55.10154336 83.26731299 57.79290622 83.27734375 60.484375 C83.28141928 61.40889654 83.2854948 62.33341808 83.28969383 63.28595543 C83.31044407 68.16646468 83.32480103 73.04694661 83.33422852 77.92749023 C83.34535566 82.96594177 83.37985859 88.0039593 83.41940022 93.04225636 C83.44549444 96.92411639 83.45391322 100.80587086 83.45750999 104.6878109 C83.46238344 106.54619005 83.47401895 108.40456426 83.49254799 110.26285744 C83.51681834 112.85504051 83.51599863 115.44606891 83.5090332 118.03833008 C83.52184326 118.80462234 83.53465332 119.57091461 83.54785156 120.36042786 C83.51330023 123.88180775 83.33022008 125.77858752 81.13468933 128.5969696 C77.58466333 131.23179875 75.4758413 131.64531917 71.0390625 131.15234375 C69.25324411 129.97302972 67.47001502 128.7895198 65.703125 127.58203125 C61.47109549 125.31088345 56.9337242 124.23383613 52.32226562 122.96044922 C47.73521607 121.68303029 43.5046839 120.18704342 39.20703125 118.1171875 C36.53762063 116.92917953 33.81949875 116.04892106 31.0390625 115.15234375 C25.85757558 113.47346298 20.97196358 111.44738074 16.0390625 109.15234375 C12.7263445 107.67320835 9.45160305 106.27863167 5.9765625 105.21484375 C1.22849575 103.4974579 -2.15213687 101.3655447 -4.9609375 97.15234375 C-5.14969696 94.70346843 -5.22374303 92.3696682 -5.20385742 89.92138672 C-5.20575577 89.18747711 -5.20765411 88.4535675 -5.20960999 87.69741821 C-5.21332261 85.26301478 -5.20259263 82.8289084 -5.19140625 80.39453125 C-5.19021281 78.69076574 -5.18976164 76.98699956 -5.1900177 75.28323364 C-5.18845111 71.70033683 -5.18015881 68.11753967 -5.16674805 64.53466797 C-5.14993805 59.99073475 -5.14592867 55.44691285 -5.14669323 50.90295219 C-5.14641791 47.37483701 -5.14087673 43.84674515 -5.13369179 40.31863785 C-5.13055332 38.64687399 -5.12854928 36.97510754 -5.12779808 35.30334091 C-5.11974468 26.73220199 -4.9999443 18.1754569 -4.57543945 9.61376953 C-4.54523051 8.89136015 -4.51502157 8.16895077 -4.48389721 7.42465019 C-4.07848674 0.31685455 -4.07848674 0.31685455 0 0 Z " fill="#FFFFFF" transform="translate(368.9609375,149.84765625)"/>
<path d="M0 0 C2.0625 0.4375 2.0625 0.4375 4 1 C4.81685092 4.16529733 5.14129141 7.2441777 5.25 10.5 C5.27578125 11.2321875 5.3015625 11.964375 5.328125 12.71875 C4.87675969 15.85681361 4.00248853 17.53067366 2 20 C-1.14453125 21.29296875 -1.14453125 21.29296875 -4.8125 22.1875 C-9.28179528 23.31320674 -13.64274881 24.49529592 -18 26 C-19.00160156 26.33 -20.00320312 26.66 -21.03515625 27 C-22.03417969 27.33 -23.03320312 27.66 -24.0625 28 C-25.06410156 28.33 -26.06570312 28.66 -27.09765625 29 C-29.77115961 29.92115324 -32.38256087 30.9316575 -35 32 C-38.55482095 33.32272407 -42.03301708 34.23365816 -45.75 34.9375 C-53.02856665 36.32963549 -59.98748011 38.63690023 -67 41 C-67.63099609 41.21156738 -68.26199219 41.42313477 -68.91210938 41.64111328 C-70.98970554 42.34711678 -73.0573608 43.07789349 -75.125 43.8125 C-76.17880859 44.16538086 -76.17880859 44.16538086 -77.25390625 44.52539062 C-78.27677734 44.89374023 -78.27677734 44.89374023 -79.3203125 45.26953125 C-79.93148926 45.48198486 -80.54266602 45.69443848 -81.17236328 45.91333008 C-83.9509126 47.56539033 -85.24322344 49.26662576 -87 52 C-87.58293641 54.94744115 -87.54701164 57.84239504 -87.51898193 60.83943176 C-87.53023381 62.17503624 -87.53023381 62.17503624 -87.541713 63.53762263 C-87.56201262 66.521168 -87.55388296 69.50395505 -87.54589844 72.48754883 C-87.5546322 74.62619784 -87.56511728 76.76484032 -87.57722473 78.9034729 C-87.60512931 84.71089466 -87.60848842 90.51810367 -87.60750484 96.32558274 C-87.61063009 102.39416176 -87.63624024 108.46264441 -87.65948486 114.53117371 C-87.70007805 126.02348729 -87.72039341 137.51574408 -87.73345876 149.00811833 C-87.74931753 162.0914705 -87.78772846 175.17472587 -87.82805204 188.25802195 C-87.91049645 215.17198216 -87.96456022 242.08593976 -88 269 C-92.95 269 -97.9 269 -103 269 C-103.06841007 239.38528367 -103.1215147 209.77057107 -103.15319599 180.15579234 C-103.15694819 176.66099034 -103.16083115 173.16618849 -103.16479492 169.67138672 C-103.16558185 168.97562272 -103.16636878 168.27985872 -103.16717956 167.56301096 C-103.18024018 156.29130001 -103.20389762 145.01963487 -103.23145839 133.74795112 C-103.25949438 122.18564528 -103.27594781 110.6233717 -103.28226548 99.06103253 C-103.2861835 92.56516603 -103.29542012 86.0694035 -103.31719017 79.57357025 C-103.33750158 73.46366366 -103.34384461 67.35390421 -103.33932304 61.24396706 C-103.34015064 58.99773421 -103.34614793 56.75149661 -103.35761642 54.50529289 C-103.37247672 51.4455456 -103.3689771 48.38635858 -103.36076355 45.32659912 C-103.36950207 44.43165953 -103.3782406 43.53671995 -103.38724393 42.61466098 C-103.34363177 36.63049017 -103.34363177 36.63049017 -101.63296986 33.49179459 C-99.4768932 31.52211739 -97.45509647 30.78604835 -94.6875 29.875 C-93.70136719 29.545 -92.71523437 29.215 -91.69921875 28.875 C-90.36310547 28.441875 -90.36310547 28.441875 -89 28 C-88.01 27.62875 -87.02 27.2575 -86 26.875 C-83.21774027 26.06350758 -80.54129942 25.54800115 -77.6875 25.0625 C-71.65866454 24.01294565 -66.17741683 22.17447463 -60.453125 20.05859375 C-52.49526619 17.12614578 -44.45368679 14.57287488 -36.3046875 12.22265625 C-29.65654646 10.29490375 -23.33513888 7.79669254 -16.9453125 5.1484375 C-12.36665045 3.3280056 -7.85853734 2.27461566 -3.00390625 1.4296875 C-1.01106709 1.1921136 -1.01106709 1.1921136 0 0 Z " fill="#010203" transform="translate(236,455)"/>
<path d="M0 0 C2 2 2 2 2.23046875 4.05859375 C2.21628906 4.84363281 2.20210938 5.62867188 2.1875 6.4375 C2.18105469 7.21996094 2.17460937 8.00242187 2.16796875 8.80859375 C2 11 2 11 1 14 C1.00723758 17.61879062 1.07600888 21.22410093 1.21484375 24.83984375 C1.32458672 30.5963613 1.32458672 30.5963613 -0.30517578 32.62304688 C-5.92777707 37.19110669 -12.82147994 38.92911175 -19.63671875 40.93359375 C-23.89432285 42.28356578 -27.92886176 44.01159459 -32.02734375 45.77734375 C-35.99694367 47.41004385 -40.04738618 48.71357173 -44.12890625 50.03515625 C-47.65214961 51.21915776 -51.07372752 52.59471367 -54.51171875 54.00390625 C-57.11302866 55.04524695 -59.73556287 55.99727132 -62.375 56.9375 C-66.27132773 58.33295445 -70.07349586 59.86435282 -73.875 61.5 C-78.11238935 63.2995147 -82.33407526 64.76219883 -86.75 66.0625 C-91.16315744 67.3654322 -95.06332514 68.8981071 -99.11328125 71.0546875 C-105.518157 74.26375568 -111.91289166 75.43753108 -119 76 C-119 76.66 -119 77.32 -119 78 C-120.98 78.99 -120.98 78.99 -123 80 C-126.91969276 76.08030724 -125.26859341 64.37932038 -125.3125 59.3125 C-125.34150391 58.18521484 -125.37050781 57.05792969 -125.40039062 55.89648438 C-125.40876953 54.81302734 -125.41714844 53.72957031 -125.42578125 52.61328125 C-125.44036377 51.63141846 -125.45494629 50.64955566 -125.4699707 49.63793945 C-124.86874809 46.26328474 -123.62316711 45.13168178 -121 43 C-118.6328125 41.8046875 -118.6328125 41.8046875 -116.125 40.875 C-115.30257813 40.56304688 -114.48015625 40.25109375 -113.6328125 39.9296875 C-108.70915735 38.19106743 -103.75368931 36.61624731 -98.75 35.125 C-93.02157553 33.36638662 -87.52694907 31.30289545 -82 29 C-73.98428659 25.71923234 -65.99927414 22.59372319 -57.75390625 19.92578125 C-54.34222645 18.77887613 -51.03383959 17.4369008 -47.70703125 16.06640625 C-44.44042328 14.77956069 -41.13105716 13.64590094 -37.8125 12.5 C-32.43535482 10.61544454 -32.43535482 10.61544454 -27.4375 7.9375 C-23.15123825 5.52160701 -18.80005146 4.28457536 -14.0859375 2.9296875 C-11.03209898 2.06280481 -11.03209898 2.06280481 -8.30078125 0.8984375 C-5.38825373 -0.23888225 -3.09923367 -0.27548744 0 0 Z " fill="#010203" transform="translate(504,472)"/>
<path d="M0 0 C0.53625 0.391875 1.0725 0.78375 1.625 1.1875 C1.46290039 2.04649902 1.30080078 2.90549805 1.13378906 3.79052734 C0.63861593 7.09659209 0.49940309 10.19931974 0.484375 13.5390625 C0.45537109 15.31023438 0.45537109 15.31023438 0.42578125 17.1171875 C0.39182201 19.58837557 0.37368978 22.05982997 0.37109375 24.53125 C0.33435547 26.29855469 0.33435547 26.29855469 0.296875 28.1015625 C0.2875293 29.1735791 0.27818359 30.2455957 0.26855469 31.35009766 C-0.58759501 35.1248214 -2.17876457 36.13596145 -5.375 38.1875 C-7.77734375 39.05859375 -7.77734375 39.05859375 -10.3125 39.625 C-18.88957976 41.75480118 -27.26035903 44.64930816 -35.25 48.4375 C-39.30678545 50.32508498 -42.92393325 50.86378605 -47.375 51.1875 C-47.375 51.8475 -47.375 52.5075 -47.375 53.1875 C-47.964021 53.37860352 -48.55304199 53.56970703 -49.15991211 53.76660156 C-51.87908168 54.65194975 -54.59577514 55.54467962 -57.3125 56.4375 C-58.23869141 56.73785156 -59.16488281 57.03820312 -60.11914062 57.34765625 C-65.33141273 59.06679161 -70.33512683 60.983316 -75.32250977 63.27246094 C-78.27998847 64.59096102 -81.31311059 65.63851937 -84.375 66.6875 C-88.41363056 68.09148745 -92.28580844 69.55874668 -96.125 71.4375 C-100.7454654 73.59545747 -105.32462949 73.97662858 -110.375 74.1875 C-110.375 74.8475 -110.375 75.5075 -110.375 76.1875 C-114.375 77.52083333 -118.375 78.85416667 -122.375 80.1875 C-122.375 80.8475 -122.375 81.5075 -122.375 82.1875 C-123.365 82.1875 -124.355 82.1875 -125.375 82.1875 C-125.49857051 77.25798719 -125.58932177 72.32937468 -125.6496582 67.39868164 C-125.67480792 65.72143859 -125.70893259 64.0443052 -125.75219727 62.36743164 C-125.8128346 59.95691915 -125.84120284 57.54785448 -125.86328125 55.13671875 C-125.90199089 54.01157112 -125.90199089 54.01157112 -125.94148254 52.86369324 C-125.94262695 50.7409668 -125.94262695 50.7409668 -125.375 47.1875 C-121.78687772 44.20822794 -117.83385215 43.39321002 -113.375 42.1875 C-109.94234686 41.04539079 -106.53465012 39.83383063 -103.125 38.625 C-101.3490088 37.99855483 -99.57296924 37.37224673 -97.796875 36.74609375 C-97.01924805 36.47079834 -96.24162109 36.19550293 -95.44042969 35.91186523 C-93.75730845 35.3215791 -92.06709968 34.75153323 -90.375 34.1875 C-89.14979736 31.17902582 -89.14979736 31.17902582 -88.375 28.1875 C-87.09625 28.435 -85.8175 28.6825 -84.5 28.9375 C-78.64821995 29.58668185 -74.61201665 27.56508976 -69.375 25.1875 C-63.57311531 22.93073114 -57.71530525 20.96528597 -51.75 19.1875 C-47.24229862 17.82618478 -43.05316512 16.24220062 -38.796875 14.24609375 C-35.80954893 12.94034316 -32.76671925 11.88338403 -29.6875 10.8125 C-21.30710323 7.87073559 -12.97020272 4.62835708 -5.1171875 0.45703125 C-2.375 -0.8125 -2.375 -0.8125 0 0 Z " fill="#010203" transform="translate(504.375,525.8125)"/>
<path d="M0 0 C0.07417023 4.50232334 0.1286105 9.00429091 0.16479492 13.50708008 C0.17987936 15.03871861 0.20034978 16.57031398 0.22631836 18.10180664 C0.26271847 20.30365654 0.27972913 22.50493533 0.29296875 24.70703125 C0.30845261 25.39150833 0.32393646 26.07598541 0.33988953 26.78120422 C0.34089478 29.62243308 0.33472989 31.5269722 -1.33544922 33.88720703 C-3.83790707 35.5601614 -6.42623235 36.24022998 -9.3125 37.0625 C-14.27089613 38.495361 -14.27089613 38.495361 -19.16796875 40.12109375 C-22 41 -22 41 -26 41 C-26 41.66 -26 42.32 -26 43 C-27.46759766 43.47179687 -27.46759766 43.47179687 -28.96484375 43.953125 C-37.55625342 46.71273779 -37.55625342 46.71273779 -45.875 50.1875 C-48.6825799 51.50779315 -51.19962495 52.31888469 -54.25 52.875 C-59.41154507 53.88583985 -63.82128038 56.15645981 -68.5390625 58.421875 C-73.1166671 60.50918003 -77.80811127 62.12801899 -82.55859375 63.7734375 C-88.4693301 65.88010176 -94.47800905 68.10931881 -100.015625 71.08203125 C-103.13092436 72.52316383 -106.39165827 72.87813906 -109.7578125 73.4375 C-112.18480295 73.84227447 -112.18480295 73.84227447 -114 76 C-116.34765625 76.66796875 -116.34765625 76.66796875 -119.0625 77.1875 C-119.96097656 77.36667969 -120.85945313 77.54585938 -121.78515625 77.73046875 C-122.51605469 77.81941406 -123.24695313 77.90835938 -124 78 C-126.67392406 75.32607594 -125.31833961 67.79044636 -125.35009766 63.95458984 C-125.36662016 62.49186247 -125.39386198 61.02921461 -125.43212891 59.56689453 C-125.48709731 57.4556297 -125.50880166 55.3462605 -125.5234375 53.234375 C-125.54325684 51.96819336 -125.56307617 50.70201172 -125.58349609 49.39746094 C-124.84543262 45.10001689 -123.35863773 43.68758833 -120 41 C-116.9140625 39.70703125 -116.9140625 39.70703125 -113.625 38.8125 C-112.54476563 38.50957031 -111.46453125 38.20664062 -110.3515625 37.89453125 C-108.69253906 37.45173828 -108.69253906 37.45173828 -107 37 C-96.62049428 34.12389115 -86.60475715 30.35166114 -76.703125 26.12890625 C-74.279936 25.11690969 -71.84678297 24.19718491 -69.375 23.3125 C-65.98741442 22.25590683 -65.98741442 22.25590683 -64 20 C-63.05125 19.896875 -62.1025 19.79375 -61.125 19.6875 C-56.47212402 19.14915071 -52.51835339 17.18610524 -48.2578125 15.328125 C-44.95878395 13.9831973 -41.66825267 12.93680356 -38.25 11.9375 C-33.88177857 10.64571005 -30.01941533 9.14879393 -26.015625 7.00390625 C-7.16083916 -2.38694639 -7.16083916 -2.38694639 0 0 Z " fill="#010203" transform="translate(504,417)"/>
<path d="M0 0 C0.99 0.66 1.98 1.32 3 2 C3.26464844 3.92016602 3.26464844 3.92016602 3.109375 6.25390625 C3.05910156 7.10919922 3.00882812 7.96449219 2.95703125 8.84570312 C2.88871094 9.74224609 2.82039063 10.63878906 2.75 11.5625 C2.69714844 12.43197266 2.64429688 13.30144531 2.58984375 14.19726562 C2.42284086 16.80134554 2.2170246 19.39965068 2 22 C1.93941406 22.84433594 1.87882812 23.68867187 1.81640625 24.55859375 C1.74808594 25.35523438 1.67976563 26.151875 1.609375 26.97265625 C1.52381348 28.03432007 1.52381348 28.03432007 1.43652344 29.11743164 C0.79147868 31.89927734 -0.8521151 33.42622866 -3.15234375 35.01953125 C-6.62339185 36.86146164 -10.22985754 37.9340371 -14 39 C-22.72891228 41.40653397 -22.72891228 41.40653397 -31 45 C-36.33863772 47.87812393 -42.20667529 49.29986279 -48 51 C-54.023974 52.82544667 -59.61381772 55.15097999 -65.31640625 57.81640625 C-67.67664347 58.85738424 -69.97444263 59.68477542 -72.4375 60.4375 C-76.06933217 61.56683297 -79.21580066 63.13334941 -82.5625 64.9375 C-88.01040886 67.75538389 -93.27029331 69.24901269 -99.20166016 70.59692383 C-103.87701068 71.66983519 -108.14195376 73.0708782 -112.49609375 75.0703125 C-116.23446486 76.45835045 -120.09973101 77.19856765 -124 78 C-124.0988803 73.3552879 -124.1714715 68.71118827 -124.21972656 64.06567383 C-124.23984186 62.48548715 -124.26713804 60.90537491 -124.30175781 59.32543945 C-124.35028343 57.05401252 -124.37296809 54.78356942 -124.390625 52.51171875 C-124.41127014 51.80536789 -124.43191528 51.09901703 -124.45318604 50.3712616 C-124.45468026 47.10480825 -124.4448321 45.45546439 -122.11035156 43.06518555 C-119.83406689 41.91624639 -118.02161803 41.46962113 -115.5 41.125 C-110.35862071 40.21415535 -105.92949134 38.44625396 -101.15625 36.3671875 C-94.75174682 33.59295964 -88.24767396 30.86991267 -81.5 29.0625 C-78.10002099 28.03036351 -75.14463675 26.70809191 -71.9375 25.1875 C-66.16125354 22.4587215 -60.32292883 20.24335232 -54.2890625 18.15625 C-50.56271906 16.84627653 -46.91964513 15.37978204 -43.265625 13.8828125 C-41.17288893 13.06736707 -39.08664258 12.39802391 -36.9375 11.75 C-32.25856035 10.24873594 -27.92036424 8.12244242 -23.5 6 C-6.63383395 -2.05332956 -6.63383395 -2.05332956 0 0 Z " fill="#010203" transform="translate(503,584)"/>
<path d="M0 0 C-0.16298584 0.53915039 -0.32597168 1.07830078 -0.49389648 1.63378906 C-1.09281664 4.43395024 -1.11226789 6.99549433 -1.09765625 9.859375 C-1.09443359 10.97441406 -1.09121094 12.08945312 -1.08789062 13.23828125 C-1.07951172 14.39714844 -1.07113281 15.55601562 -1.0625 16.75 C-1.05798828 17.92433594 -1.05347656 19.09867188 -1.04882812 20.30859375 C-1.03705094 23.20578072 -1.02060326 26.10286454 -1 29 C-8.53821128 32.59021192 -16.06531149 35.8587601 -23.88671875 38.78125 C-26.80974835 39.92552256 -29.60902109 41.20416752 -32.4375 42.5625 C-37.73060635 45.03880707 -43.14210579 46.51215973 -48.7734375 48.02734375 C-52.17917166 49.0540118 -55.04283706 50.42505761 -58.140625 52.1328125 C-60.26918411 53.12554385 -62.25826606 53.55925727 -64.5625 54 C-67.64032142 54.59127959 -69.94651038 55.37013607 -72.625 57 C-76.11515167 59.06823803 -79.10229287 59.92843728 -83 61 C-92.24610471 64.01189409 -92.24610471 64.01189409 -101.0625 68.0625 C-105.43929123 70.39741886 -110.10647024 71.68010387 -114.8515625 73.0703125 C-116.96827683 73.69534725 -119.06843563 74.37912232 -121.1484375 75.1171875 C-124 76 -124 76 -128 76 C-127.75056641 74.67935547 -127.75056641 74.67935547 -127.49609375 73.33203125 C-126.49172182 66.32260956 -127.0009744 59.13479776 -127.12695312 52.07617188 C-127.13791016 50.94115234 -127.14886719 49.80613281 -127.16015625 48.63671875 C-127.17699463 47.60248779 -127.19383301 46.56825684 -127.21118164 45.50268555 C-127 43 -127 43 -125 41 C-122.99820891 40.31646158 -120.97281954 39.70107875 -118.9375 39.125 C-114.89116576 37.93202137 -111.06155854 36.68296051 -107.25 34.875 C-104.38794712 33.52967932 -101.79264374 32.65686562 -98.6875 32.0625 C-92.03721171 30.75101208 -85.90190111 27.84025833 -79.796875 24.9609375 C-74.2704736 22.36648188 -68.62890444 20.61108285 -62.79614258 18.85546875 C-58.65122318 17.5850551 -54.96087082 16.11510214 -51.1796875 14.03125 C-47.44621813 12.26487739 -43.48217614 11.11668837 -39.55615234 9.85546875 C-36.1223075 8.7413275 -32.8207249 7.55392264 -29.5625 6 C-25.40605144 4.0529065 -21.12383632 2.67751064 -16.75 1.3125 C-16.06365479 1.09787109 -15.37730957 0.88324219 -14.67016602 0.66210938 C-4.08940969 -2.57481351 -4.08940969 -2.57481351 0 0 Z " fill="#010203" transform="translate(506,642)"/>
<path d="M0 0 C2.46057182 2.46057182 2.37747115 3.40721905 2.5 6.8125 C2.5515625 7.66457031 2.603125 8.51664063 2.65625 9.39453125 C1.68243638 13.26080317 -0.74238506 14.99181719 -4 17 C-6.89272871 18.38750469 -9.8530749 19.49044811 -12.875 20.5625 C-17.42113334 22.21459399 -21.86107415 23.86389409 -26.1640625 26.0859375 C-29.52779897 27.81951703 -32.85205631 29.01958541 -36.5 30.0625 C-40.72209731 31.28001073 -44.82382059 32.64183334 -48.92529297 34.20825195 C-51.00281402 35.00107388 -53.08766641 35.77071785 -55.17578125 36.53515625 C-55.85833984 36.78716797 -56.54089844 37.03917969 -57.24414062 37.29882812 C-58.64150728 37.81475859 -60.03997853 38.32770567 -61.43945312 38.83789062 C-64.57025492 39.99888386 -67.20792814 41.13861876 -70 43 C-72.26171875 43.4140625 -72.26171875 43.4140625 -74.6875 43.625 C-75.49574219 43.69976562 -76.30398437 43.77453125 -77.13671875 43.8515625 C-77.75160156 43.90054688 -78.36648437 43.94953125 -79 44 C-81.66646166 39.13450423 -81.55420239 35.17417861 -80.1875 29.8125 C-76.06129174 24.50737509 -69.14721653 23.34289082 -62.75 22.1875 C-57.78437132 21.19790852 -53.45776381 18.94720958 -48.94384766 16.74560547 C-44.42613121 14.57624599 -39.8990288 12.83120735 -35.125 11.3125 C-30.30414069 9.7774501 -25.71272667 8.11849955 -21.1328125 5.9765625 C-17.82975422 4.46417318 -14.44693767 3.15990822 -11.06640625 1.83203125 C-7.04605735 0.21325182 -4.46324068 -0.23910218 0 0 Z " fill="#010203" transform="translate(206,186)"/>
<path d="M0 0 C2.41816166 2.41816166 1.18547019 8.68777819 1.1875 11.9375 C1.19974609 12.96552734 1.21199219 13.99355469 1.22460938 15.05273438 C1.22654297 16.03435547 1.22847656 17.01597656 1.23046875 18.02734375 C1.23457764 18.93218506 1.23868652 19.83702637 1.24291992 20.76928711 C1 23 1 23 -1 25 C-3.63223267 25.2784729 -3.63223267 25.2784729 -7.01025391 25.31884766 C-8.90198837 25.34865219 -8.90198837 25.34865219 -10.8319397 25.37905884 C-12.21347885 25.39093614 -13.59501986 25.40259895 -14.9765625 25.4140625 C-16.38619124 25.4327671 -17.79580871 25.45233998 -19.20541382 25.4727478 C-22.91745362 25.52415012 -26.62952977 25.56373219 -30.34173584 25.60089111 C-34.12895759 25.64088022 -37.91602715 25.69199571 -41.703125 25.7421875 C-49.13531238 25.83904257 -56.56757317 25.92341637 -64 26 C-64 24.68 -64 23.36 -64 22 C-63.34 22 -62.68 22 -62 22 C-62 21.34 -62 20.68 -62 20 C-61.00371582 19.6757605 -61.00371582 19.6757605 -59.98730469 19.3449707 C-48.48386293 15.58929448 -37.10884434 11.81479937 -26 7 C-22.92794854 5.70034085 -19.84251483 4.4375923 -16.75 3.1875 C-15.63165771 2.71558228 -15.63165771 2.71558228 -14.49072266 2.23413086 C-9.42764874 0.20630947 -5.45735729 -0.40626993 0 0 Z " fill="#010102" transform="translate(505,699)"/>
<path d="M0 0 C0.87527344 -0.01417969 1.75054687 -0.02835938 2.65234375 -0.04296875 C5.0625 0.1875 5.0625 0.1875 8.0625 2.1875 C8.02784458 14.17827612 8.02784458 14.17827612 4.3125 18.0625 C0.7928699 19.28083349 -0.50379566 19.50815551 -3.9375 18.1875 C-6.98335345 16.59205296 -9.9383457 15.02840348 -11.9375 12.1875 C-12.4375 9.3125 -12.4375 9.3125 -11.9375 6.1875 C-8.11097684 1.656091 -5.83071727 0.04280997 0 0 Z " fill="#020404" transform="translate(229.9375,582.8125)"/>
</svg>
